<mxfile host="Electron" modified="2023-12-05T20:16:54.314Z" agent="Mozilla/5.0 (Macintosh; Intel Mac OS X 10_15_7) AppleWebKit/537.36 (KHTML, like Gecko) draw.io/22.1.2 Chrome/114.0.5735.289 Electron/25.9.4 Safari/537.36" etag="fMQqoB738xXSlhvHDu6d" version="22.1.2" type="device">
  <diagram name="Page-1" id="2YBvvXClWsGukQMizWep">
    <mxGraphModel dx="1194" dy="621" grid="1" gridSize="10" guides="1" tooltips="1" connect="1" arrows="1" fold="1" page="1" pageScale="1" pageWidth="850" pageHeight="1100" math="0" shadow="0">
      <root>
        <mxCell id="0" />
        <mxCell id="1" parent="0" />
        <mxCell id="aM9ryv3xv72pqoxQDRHE-1" value="&amp;lt;&amp;lt;Actor&amp;gt;&amp;gt;&lt;br&gt;Librarian" style="shape=umlLifeline;perimeter=lifelinePerimeter;whiteSpace=wrap;html=1;container=0;dropTarget=0;collapsible=0;recursiveResize=0;outlineConnect=0;portConstraint=eastwest;newEdgeStyle={&quot;edgeStyle&quot;:&quot;elbowEdgeStyle&quot;,&quot;elbow&quot;:&quot;vertical&quot;,&quot;curved&quot;:0,&quot;rounded&quot;:0};" parent="1" vertex="1">
          <mxGeometry x="40" y="40" width="100" height="400" as="geometry" />
        </mxCell>
        <mxCell id="aM9ryv3xv72pqoxQDRHE-5" value="UI" style="shape=umlLifeline;perimeter=lifelinePerimeter;whiteSpace=wrap;html=1;container=0;dropTarget=0;collapsible=0;recursiveResize=0;outlineConnect=0;portConstraint=eastwest;newEdgeStyle={&quot;edgeStyle&quot;:&quot;elbowEdgeStyle&quot;,&quot;elbow&quot;:&quot;vertical&quot;,&quot;curved&quot;:0,&quot;rounded&quot;:0};" parent="1" vertex="1">
          <mxGeometry x="230" y="40" width="100" height="400" as="geometry" />
        </mxCell>
        <mxCell id="tzAvLBIY38gFi4zq9o81-4" value="" style="html=1;points=[];perimeter=orthogonalPerimeter;outlineConnect=0;targetShapes=umlLifeline;portConstraint=eastwest;newEdgeStyle={&quot;edgeStyle&quot;:&quot;elbowEdgeStyle&quot;,&quot;elbow&quot;:&quot;vertical&quot;,&quot;curved&quot;:0,&quot;rounded&quot;:0};" parent="aM9ryv3xv72pqoxQDRHE-5" vertex="1">
          <mxGeometry x="45" y="79" width="10" height="281" as="geometry" />
        </mxCell>
        <mxCell id="tzAvLBIY38gFi4zq9o81-20" value="" style="html=1;points=[];perimeter=orthogonalPerimeter;outlineConnect=0;targetShapes=umlLifeline;portConstraint=eastwest;newEdgeStyle={&quot;edgeStyle&quot;:&quot;elbowEdgeStyle&quot;,&quot;elbow&quot;:&quot;vertical&quot;,&quot;curved&quot;:0,&quot;rounded&quot;:0};" parent="aM9ryv3xv72pqoxQDRHE-5" vertex="1">
          <mxGeometry x="50" y="323" width="10" height="33" as="geometry" />
        </mxCell>
        <mxCell id="tzAvLBIY38gFi4zq9o81-21" value="" style="endArrow=classic;html=1;rounded=0;" parent="aM9ryv3xv72pqoxQDRHE-5" edge="1">
          <mxGeometry width="50" height="50" relative="1" as="geometry">
            <mxPoint x="55" y="291" as="sourcePoint" />
            <mxPoint x="60" y="324" as="targetPoint" />
            <Array as="points">
              <mxPoint x="130" y="291" />
              <mxPoint x="130" y="324" />
            </Array>
          </mxGeometry>
        </mxCell>
        <mxCell id="tzAvLBIY38gFi4zq9o81-1" value="SystemController" style="shape=umlLifeline;perimeter=lifelinePerimeter;whiteSpace=wrap;html=1;container=0;dropTarget=0;collapsible=0;recursiveResize=0;outlineConnect=0;portConstraint=eastwest;newEdgeStyle={&quot;edgeStyle&quot;:&quot;elbowEdgeStyle&quot;,&quot;elbow&quot;:&quot;vertical&quot;,&quot;curved&quot;:0,&quot;rounded&quot;:0};" parent="1" vertex="1">
          <mxGeometry x="430" y="40" width="100" height="400" as="geometry" />
        </mxCell>
        <mxCell id="tzAvLBIY38gFi4zq9o81-7" value="" style="html=1;points=[];perimeter=orthogonalPerimeter;outlineConnect=0;targetShapes=umlLifeline;portConstraint=eastwest;newEdgeStyle={&quot;edgeStyle&quot;:&quot;elbowEdgeStyle&quot;,&quot;elbow&quot;:&quot;vertical&quot;,&quot;curved&quot;:0,&quot;rounded&quot;:0};" parent="tzAvLBIY38gFi4zq9o81-1" vertex="1">
          <mxGeometry x="45" y="171" width="10" height="171" as="geometry" />
        </mxCell>
        <mxCell id="tzAvLBIY38gFi4zq9o81-15" value="" style="html=1;points=[];perimeter=orthogonalPerimeter;outlineConnect=0;targetShapes=umlLifeline;portConstraint=eastwest;newEdgeStyle={&quot;edgeStyle&quot;:&quot;elbowEdgeStyle&quot;,&quot;elbow&quot;:&quot;vertical&quot;,&quot;curved&quot;:0,&quot;rounded&quot;:0};" parent="tzAvLBIY38gFi4zq9o81-1" vertex="1">
          <mxGeometry x="50" y="205" width="10" height="25" as="geometry" />
        </mxCell>
        <mxCell id="tzAvLBIY38gFi4zq9o81-13" value="" style="endArrow=classic;html=1;rounded=0;" parent="tzAvLBIY38gFi4zq9o81-1" edge="1">
          <mxGeometry width="50" height="50" relative="1" as="geometry">
            <mxPoint x="55" y="177" as="sourcePoint" />
            <mxPoint x="60" y="206" as="targetPoint" />
            <Array as="points">
              <mxPoint x="120" y="176" />
              <mxPoint x="120" y="206" />
            </Array>
          </mxGeometry>
        </mxCell>
        <mxCell id="tzAvLBIY38gFi4zq9o81-2" value="DataAccess" style="shape=umlLifeline;perimeter=lifelinePerimeter;whiteSpace=wrap;html=1;container=0;dropTarget=0;collapsible=0;recursiveResize=0;outlineConnect=0;portConstraint=eastwest;newEdgeStyle={&quot;edgeStyle&quot;:&quot;elbowEdgeStyle&quot;,&quot;elbow&quot;:&quot;vertical&quot;,&quot;curved&quot;:0,&quot;rounded&quot;:0};" parent="1" vertex="1">
          <mxGeometry x="660" y="40" width="100" height="400" as="geometry" />
        </mxCell>
        <mxCell id="38eH5wwqnjSQSpS7IDeQ-4" value="" style="html=1;points=[];perimeter=orthogonalPerimeter;outlineConnect=0;targetShapes=umlLifeline;portConstraint=eastwest;newEdgeStyle={&quot;edgeStyle&quot;:&quot;elbowEdgeStyle&quot;,&quot;elbow&quot;:&quot;vertical&quot;,&quot;curved&quot;:0,&quot;rounded&quot;:0};" parent="tzAvLBIY38gFi4zq9o81-2" vertex="1">
          <mxGeometry x="45" y="244.5" width="10" height="33" as="geometry" />
        </mxCell>
        <mxCell id="tzAvLBIY38gFi4zq9o81-3" value="" style="endArrow=classic;html=1;rounded=0;" parent="1" target="tzAvLBIY38gFi4zq9o81-4" edge="1">
          <mxGeometry width="50" height="50" relative="1" as="geometry">
            <mxPoint x="89.5" y="120" as="sourcePoint" />
            <mxPoint x="260" y="120" as="targetPoint" />
          </mxGeometry>
        </mxCell>
        <mxCell id="tzAvLBIY38gFi4zq9o81-5" value="1: login" style="text;html=1;strokeColor=none;fillColor=none;align=center;verticalAlign=middle;whiteSpace=wrap;rounded=0;" parent="1" vertex="1">
          <mxGeometry x="140" y="90" width="60" height="30" as="geometry" />
        </mxCell>
        <mxCell id="tzAvLBIY38gFi4zq9o81-6" value="" style="endArrow=classic;html=1;rounded=0;" parent="1" target="tzAvLBIY38gFi4zq9o81-7" edge="1">
          <mxGeometry width="50" height="50" relative="1" as="geometry">
            <mxPoint x="285" y="212" as="sourcePoint" />
            <mxPoint x="460" y="212" as="targetPoint" />
          </mxGeometry>
        </mxCell>
        <mxCell id="tzAvLBIY38gFi4zq9o81-8" value="3 : login" style="text;html=1;strokeColor=none;fillColor=none;align=center;verticalAlign=middle;whiteSpace=wrap;rounded=0;" parent="1" vertex="1">
          <mxGeometry x="340" y="182" width="60" height="30" as="geometry" />
        </mxCell>
        <mxCell id="tzAvLBIY38gFi4zq9o81-14" value="4 : validation" style="text;html=1;strokeColor=none;fillColor=none;align=center;verticalAlign=middle;whiteSpace=wrap;rounded=0;" parent="1" vertex="1">
          <mxGeometry x="550" y="212" width="80" height="30" as="geometry" />
        </mxCell>
        <mxCell id="tzAvLBIY38gFi4zq9o81-17" value="" style="endArrow=classic;html=1;rounded=0;" parent="1" edge="1">
          <mxGeometry width="50" height="50" relative="1" as="geometry">
            <mxPoint x="485" y="285.5" as="sourcePoint" />
            <mxPoint x="705" y="285.5" as="targetPoint" />
          </mxGeometry>
        </mxCell>
        <mxCell id="tzAvLBIY38gFi4zq9o81-19" value="5 : login" style="text;html=1;strokeColor=none;fillColor=none;align=center;verticalAlign=middle;whiteSpace=wrap;rounded=0;" parent="1" vertex="1">
          <mxGeometry x="580" y="257.5" width="60" height="30" as="geometry" />
        </mxCell>
        <mxCell id="tzAvLBIY38gFi4zq9o81-22" value="6 : updateUI" style="text;html=1;strokeColor=none;fillColor=none;align=center;verticalAlign=middle;whiteSpace=wrap;rounded=0;" parent="1" vertex="1">
          <mxGeometry x="360" y="340" width="90" height="30" as="geometry" />
        </mxCell>
        <mxCell id="38eH5wwqnjSQSpS7IDeQ-1" value="" style="html=1;points=[];perimeter=orthogonalPerimeter;outlineConnect=0;targetShapes=umlLifeline;portConstraint=eastwest;newEdgeStyle={&quot;edgeStyle&quot;:&quot;elbowEdgeStyle&quot;,&quot;elbow&quot;:&quot;vertical&quot;,&quot;curved&quot;:0,&quot;rounded&quot;:0};" parent="1" vertex="1">
          <mxGeometry x="280" y="156" width="10" height="33" as="geometry" />
        </mxCell>
        <mxCell id="38eH5wwqnjSQSpS7IDeQ-2" value="" style="endArrow=classic;html=1;rounded=0;" parent="1" edge="1">
          <mxGeometry width="50" height="50" relative="1" as="geometry">
            <mxPoint x="285" y="124" as="sourcePoint" />
            <mxPoint x="290" y="157" as="targetPoint" />
            <Array as="points">
              <mxPoint x="360" y="124" />
              <mxPoint x="360" y="157" />
            </Array>
          </mxGeometry>
        </mxCell>
        <mxCell id="38eH5wwqnjSQSpS7IDeQ-3" value="2 : showLogin" style="text;html=1;strokeColor=none;fillColor=none;align=center;verticalAlign=middle;whiteSpace=wrap;rounded=0;" parent="1" vertex="1">
          <mxGeometry x="364" y="127" width="86" height="30" as="geometry" />
        </mxCell>
      </root>
    </mxGraphModel>
  </diagram>
</mxfile>
